<?xml version="1.0" encoding="UTF-8" standalone="no"?>
<!-- Created with Inkscape (http://www.inkscape.org/) -->

<svg
   xmlns:dc="http://purl.org/dc/elements/1.1/"
   xmlns:cc="http://creativecommons.org/ns#"
   xmlns:rdf="http://www.w3.org/1999/02/22-rdf-syntax-ns#"
   xmlns:svg="http://www.w3.org/2000/svg"
   xmlns="http://www.w3.org/2000/svg"
   xmlns:sodipodi="http://sodipodi.sourceforge.net/DTD/sodipodi-0.dtd"
   xmlns:inkscape="http://www.inkscape.org/namespaces/inkscape"
   width="246"
   height="50"
   viewBox="0 0 246 50.000002"
   id="svg2"
   version="1.1"
   inkscape:version="0.91 r13725"
   sodipodi:docname="logo_opto_vecto.svg">
  <defs
     id="defs4" />
  <sodipodi:namedview
     id="base"
     pagecolor="#ffffff"
     bordercolor="#666666"
     borderopacity="1.0"
     inkscape:pageopacity="0.0"
     inkscape:pageshadow="2"
     inkscape:zoom="0.98994949"
     inkscape:cx="-71.801517"
     inkscape:cy="386.33571"
     inkscape:document-units="px"
     inkscape:current-layer="layer1"
     showgrid="true"
     inkscape:window-width="1920"
     inkscape:window-height="1018"
     inkscape:window-x="-8"
     inkscape:window-y="-8"
     inkscape:window-maximized="1"
     units="px">
    <inkscape:grid
       type="axonomgrid"
       id="grid3333"
       units="mm"
       empspacing="5" />
  </sodipodi:namedview>
  <metadata
     id="metadata7">
    <rdf:RDF>
      <cc:Work
         rdf:about="">
        <dc:format>image/svg+xml</dc:format>
        <dc:type
           rdf:resource="http://purl.org/dc/dcmitype/StillImage" />
        <dc:title></dc:title>
        <dc:creator>
          <cc:Agent>
            <dc:title>DA</dc:title>
          </cc:Agent>
        </dc:creator>
        <dc:subject>
          <rdf:Bag>
            <rdf:li>SVG</rdf:li>
            <rdf:li>web</rdf:li>
            <rdf:li>templates</rdf:li>
          </rdf:Bag>
        </dc:subject>
      </cc:Work>
    </rdf:RDF>
  </metadata>
  <g
     inkscape:label="Calque 1"
     inkscape:groupmode="layer"
     id="layer1"
     transform="translate(0,-1002.3621)">
    <g
       id="g4030"
       transform="matrix(0.32748485,0,0,0.32748485,-49.316335,804.56926)">
      <g
         id="g4002">
        <rect
           style="display:inline;fill:#29b5b3;fill-opacity:1"
           id="rect3038"
           width="234.89044"
           height="1.5267879"
           x="151.18109"
           y="-756.65436"
           transform="scale(1,-1)" />
        <path
           inkscape:connector-curvature="0"
           id="rect3040"
           d="m 151.18109,603.97554 0,13.74109 86.57181,0 c 9.74162,-1.98186 20.11137,-3.05358 30.87341,-3.05358 10.76204,0 21.13179,1.07172 30.87341,3.05358 l 86.57181,0 0,-13.74109 -234.89044,0 z"
           style="display:inline;fill:#00c0b5;fill-opacity:1" />
        <rect
           y="739.85968"
           x="151.18109"
           height="3.0535824"
           width="234.89044"
           id="rect3042"
           style="display:inline;fill:#29b5b3;fill-opacity:1" />
        <rect
           style="display:inline;fill:#29b5b3;fill-opacity:1;stroke:none"
           id="rect3044"
           width="234.89044"
           height="3.0535824"
           x="151.18109"
           y="724.5918" />
        <rect
           y="709.32391"
           x="151.18109"
           height="4.5803704"
           width="234.89044"
           id="rect3046"
           style="display:inline;fill:#29b5b3;fill-opacity:1" />
        <rect
           style="display:inline;fill:#29b5b3;fill-opacity:1"
           id="rect3048"
           width="234.89044"
           height="6.1071582"
           x="151.18109"
           y="694.05603" />
        <path
           inkscape:connector-curvature="0"
           id="rect3050"
           d="m 151.18109,619.24342 0,12.2143 49.19487,0 c 8.94304,-5.16153 19.30767,-9.32426 30.67522,-12.2143 l -79.87009,0 z m 155.02035,0 c 11.36755,2.89004 21.73218,7.05277 30.67522,12.2143 l 49.19487,0 0,-12.2143 -79.87009,0 z"
           style="display:inline;fill:#00c0b5;fill-opacity:1" />
        <path
           inkscape:connector-curvature="0"
           id="rect3052"
           d="m 151.18109,632.98451 0,12.2143 31.09362,0 c 4.41108,-4.4691 9.64367,-8.5637 15.55415,-12.2143 l -46.64777,0 z m 188.24267,0 c 5.91048,3.6506 11.14307,7.7452 15.55415,12.2143 l 31.09362,0 0,-12.2143 -46.64777,0 z"
           style="display:inline;fill:#00c0b5;fill-opacity:1" />
        <path
           inkscape:connector-curvature="0"
           id="rect3054"
           d="m 151.18109,648.25239 0,10.68751 20.80248,0 c 1.99579,-3.72626 4.50037,-7.29869 7.45778,-10.68751 l -28.26026,0 z m 206.63018,0 c 2.95741,3.38882 5.46199,6.96125 7.45778,10.68751 l 20.80248,0 0,-10.68751 -28.26026,0 z"
           style="display:inline;fill:#00c0b5;fill-opacity:1" />
        <path
           inkscape:connector-curvature="0"
           id="rect3056"
           d="m 151.18109,663.52026 0,9.16073 15.95053,0 c 0.56349,-3.1267 1.47125,-6.18377 2.6939,-9.16073 l -18.64443,0 z m 216.24601,0 c 1.22265,2.97696 2.13041,6.03403 2.6939,9.16073 l 15.95053,0 0,-9.16073 -18.64443,0 z"
           style="display:inline;fill:#00c0b5;fill-opacity:1" />
        <path
           inkscape:connector-curvature="0"
           id="rect3058"
           d="m 151.18109,678.78814 0,7.63394 15.7083,0 c -0.2886,-2.01053 -0.44042,-4.04822 -0.44042,-6.10715 0,-0.50987 0.0114,-1.0197 0.0294,-1.52679 l -15.29724,0 z m 219.5932,0 c 0.018,0.50709 0.0294,1.01692 0.0294,1.52679 0,2.05893 -0.15182,4.09662 -0.44042,6.10715 l 15.7083,0 0,-7.63394 -15.29724,0 z"
           style="display:inline;fill:#00c0b5;fill-opacity:1" />
        <rect
           y="619.24341"
           x="151.18109"
           height="1.5267879"
           width="235.12534"
           id="rect3901"
           style="display:inline;fill:#00c0b5;fill-opacity:1;stroke:none" />
        <rect
           y="632.9845"
           x="151.18109"
           height="3.0535758"
           width="235.12534"
           id="rect3903"
           style="display:inline;fill:#00c0b5;fill-opacity:1;stroke:none" />
        <rect
           y="648.25238"
           x="151.18109"
           height="4.5803638"
           width="235.12534"
           id="rect3905"
           style="display:inline;fill:#00c0b5;fill-opacity:1;stroke:none" />
        <rect
           y="663.52026"
           x="151.18109"
           height="6.1071515"
           width="235.12534"
           id="rect3907"
           style="display:inline;fill:#00c0b5;fill-opacity:1;stroke:none" />
        <rect
           y="678.78815"
           x="151.18109"
           height="6.1071515"
           width="235.12534"
           id="rect3909"
           style="display:inline;fill:#00c0b5;fill-opacity:1;stroke:none" />
        <g
           id="layer2"
           inkscape:label="Trame de fond 1"
           style="display:inline;fill:#00c0b5;fill-opacity:1"
           transform="matrix(0.23489044,0,0,0.23489044,151.18109,602.44875)">
          <rect
             style="fill:#00c0b5;fill-opacity:1"
             id="rect3259"
             width="1000"
             height="6.5"
             x="0"
             y="-656.50006"
             transform="scale(1,-1)" />
          <rect
             y="585"
             x="0"
             height="13.000029"
             width="1000"
             id="rect3204"
             style="fill:#00c0b5;fill-opacity:1" />
          <rect
             style="fill:#00c0b5;fill-opacity:1;stroke:none"
             id="rect3202"
             width="1000"
             height="13.000029"
             x="0"
             y="520" />
          <rect
             y="454.99997"
             x="0"
             height="19.500029"
             width="1000"
             id="rect3200"
             style="display:inline;fill:#00c0b5;fill-opacity:1" />
          <rect
             style="display:inline;fill:#00c0b5;fill-opacity:1"
             id="rect3198"
             width="1000"
             height="26.000029"
             x="0"
             y="389.99997" />
          <path
             style="display:inline;fill:#00c0b5;fill-opacity:1;stroke:none"
             d="m 178.8125,520 c 16.79612,11.80902 35.14359,22.68417 54.84375,32.5 l 532.6875,0 c 19.70016,-9.81583 38.04763,-20.69098 54.84375,-32.5 l -642.375,0 z"
             id="path3097"
             inkscape:connector-curvature="0" />
          <path
             style="display:inline;fill:#00c0b5;fill-opacity:1;stroke:none"
             d="m 109.65625,455 c 8.66213,11.28218 18.4802,22.1408 29.34375,32.5 l 722,0 c 10.86355,-10.3592 20.68162,-21.21782 29.34375,-32.5 l -780.6875,0 z"
             id="path3940"
             inkscape:connector-curvature="0" />
          <path
             style="display:inline;fill:#00c0b5;fill-opacity:1;stroke:none"
             d="m 74.5625,390 c 3.677416,11.09429 8.402999,21.93567 14.0625,32.5 l 822.75,0 c 5.6595,-10.56433 10.38508,-21.40571 14.0625,-32.5 l -850.875,0 z"
             id="path3932"
             inkscape:connector-curvature="0" />
          <path
             style="display:inline;fill:#00c0b5;fill-opacity:1;stroke:none"
             d="m 316.59375,585 c 55.7334,16.67496 117.87435,26 183.40625,26 65.5319,0 127.67285,-9.32504 183.40625,-26 l -366.8125,0 z"
             id="path3926"
             inkscape:connector-curvature="0" />
        </g>
      </g>
      <g
         id="g5232"
         transform="matrix(0.23489044,0,0,0.23489044,617.12411,518.41063)">
        <path
           style="fill:#000000;fill-opacity:1;stroke:none"
           d="m -430.24434,516.27042 -5.25,17.1875 c -2.15745,7.0529 -13.83444,45.28982 -24.40625,79.90625 l 58.21875,0 c -0.10198,-0.11626 -0.15287,-0.21519 -0.15625,-0.34375 -0.0406,-1.54067 3.87743,-16.05914 8.71875,-32.25 l 8.8125,-29.4375 39,0.75 c 48.97066,0.95511 56.48975,3.96982 56.46875,22.5625 -0.0165,14.61812 -12.96093,28.14299 -32.84375,34.3125 -5.73363,1.77911 -16.37693,3.30741 -28.0625,4.40625 l 101.53125,0 c 19.46549,-24.00431 22.84232,-56.76243 4.15625,-75.875 -16.68558,-17.06641 -26.92826,-18.87144 -113.9375,-20.15625 l -72.25,-1.0625 z m 182.03125,97.09375 c -5.66555,6.98659 -12.69312,13.23445 -20.9375,18.1875 -1.05278,0.63249 -2.07417,1.23126 -3.09375,1.8125 l 120.25,0 c 1.93539,-7.2868 3.46746,-13.03792 5.3125,-20 l -101.53125,0 z m 101.53125,0 49.406249,0 c 4.92464,-18.62241 11.90056,-44.96077 12.9375,-48.84375 l 3.40625,-12.84375 35.500001,0 35.46875,0 4.34375,-16.0625 c 2.38293,-8.83124 4.34375,-16.69849 4.34375,-17.46875 0,-0.77027 -43.27206,-1.375 -96.156251,-1.375 l -96.156249,0 -3.65625,14.875 c -2.00791,8.18952 -4.10431,16.05677 -4.65625,17.46875 -0.77966,1.99452 7.06887,2.5625 35.125,2.5625 19.86196,0 36.09375,0.32317 36.09375,0.71875 0,0.41327 -7.46901,28.77786 -16,60.96875 z m 49.406249,0 c -2.01608,7.62377 -2.936769,11.12775 -5.281249,20 l 81.90625,0 c 0.33459,-7.86472 1.48487,-11.90065 5.3125,-20 l -81.937501,0 z m 81.937501,0 72.28125,0 c 1.09669,-2.28998 2.24343,-4.46551 3.46875,-6.375 10.3474,-16.12502 30.95674,-34.21183 47.59375,-41.78125 18.2164,-8.28799 28.20357,-10.74019 50.90625,-12.5 24.10799,-1.86875 42.8405,1.40779 61.53125,10.78125 20.30651,10.18378 27.25771,19.60606 28.46875,38.625 0.2552,4.00783 0.22023,7.69962 -0.15625,11.25 l 72.09375,0 c 0.90794,-13.70964 -1.27736,-30.2999 -5.71875,-38.9375 -10.86226,-21.12496 -40.35789,-40.58234 -74.84375,-49.375 -46.02395,-11.73446 -114.67847,-8.80689 -160.65625,6.84375 -44.06257,14.99871 -74.27121,39.61292 -91.65625,74.6875 -1.29046,2.60353 -2.37364,4.79461 -3.3125,6.78125 z m 336.1875,0 c -0.28502,4.30377 -0.89133,8.35352 -1.8125,11.75 -0.75838,2.79624 -1.62816,5.53418 -2.625,8.25 l 31.65625,0 0,-20 -27.21875,0 z m -4.4375,20 -74,0 c -2.30002,4.40672 -5.2307,9.10908 -8.96875,14.40625 -15.71085,22.26374 -40.28076,38.07125 -68.9375,44.40625 -58.00635,12.82316 -108.84102,-5.74345 -115.5,-42.1875 -0.75612,-4.13817 -0.23351,-10.16166 1.15625,-16.625 l -70.8125,0 c -0.12255,2.88058 -0.15625,6.23879 -0.15625,10.5625 0,16.72055 0.78079,21.20871 5.0625,29.9375 12.82744,26.15028 49.6116,47.53263 93.53125,54.34373 18.79803,2.9153 91.68964,0.9243 108.84375,-2.9687 67.37552,-15.29066 113.78516,-48.29473 129.78125,-91.87503 z m -266.25,0 192.25,0 c 3.64444,-6.98256 5.62704,-13.24109 6.34375,-20 l -191.8125,0 c -2.93809,6.13498 -5.33838,13.2897 -6.78125,20 z m -152.71875,0 -49.4375,0 c -11.69372,44.02709 -23.93102,89.81643 -24.8125,92.59373 -1.4272,4.4967 -1.33354,4.5138 23.75,3.9375 l 25.15625,-0.5625 20.0625,-75.99998 c 2.48144,-9.39692 2.94019,-11.10946 5.28125,-19.96875 z m -169.6875,0 -193.78125,0 c -1.00621,3.29505 -1.17442,3.86982 -2.1875,7.1875 l -27.46875,89.90623 28.71875,-0.5625 28.71875,-0.5625 11.8125,-38.59373 c 6.49447,-21.21964 12.13167,-38.89334 12.5625,-39.28125 0.43083,-0.38792 24.3517,-1.68757 53.15625,-2.875 55.34909,-2.28169 69.7363,-4.53977 88.46875,-15.21875 z m -193.78125,0 c 2.80136,-9.17371 3.47834,-11.33377 6.125,-20 l -41.28125,0 c -0.82725,6.67258 -2.57021,13.36941 -5.15625,20 l 40.3125,0 z m -40.3125,0 -73.1875,0 c -12.77045,25.88645 -41.20272,48.78303 -74.96875,57.6875 -39.8767,10.51591 -81.01555,4.5592 -104.21875,-15.0625 -12.45091,-10.52911 -17.02564,-25.66732 -13.75,-42.625 l -71.28125,0 c -0.0111,0.0582 -0.0205,0.12992 -0.0312,0.1875 -8.6571,46.55145 32.90965,84.66673 104.15625,95.50003 3.3888,0.5152 24.62695,0.6398 47.21875,0.2812 44.8801,-0.7122 69.0307,-4.7574 98.875,-16.5625 42.37772,-16.76275 74.63555,-47.22307 87.1875,-79.40623 z m -337.40625,0 c 1.01183,-5.32619 3.50018,-13.31081 6.125,-20 l -34.3125,0 0,20 28.1875,0 z m 6.125,-20 72.28125,0 c 1.77918,-3.44132 3.85867,-6.89961 6.21875,-10.375 19.9072,-29.31469 48.7704,-45.27803 89.6875,-49.59375 54.82,-5.78212 96.96982,16.24675 97.15625,50.78125 0.0165,3.05008 -0.23925,6.12743 -0.71875,9.1875 l 71.8125,0 c 0.65169,-5.25659 0.75198,-10.48971 0.21875,-15.65625 -5.06238,-49.04978 -64.60572,-80.45983 -147.40625,-80.0625 -8.56557,0.0411 -17.37752,0.41858 -26.40625,1.15625 -79.9957,6.53582 -136.5879,37.90094 -160.5,89 -0.77505,1.65622 -1.55907,3.56279 -2.34375,5.5625 z m 264.625,0 -192.34375,0 c -3.5249,6.81793 -5.87894,13.54927 -7.125,20 l 192.9375,0 c 3.22641,-6.54012 5.47383,-13.25172 6.53125,-20 z m 223.25,0 -51.9375,0 c 2.30437,2.62724 29.12172,2.14547 51.9375,0 z"
           id="path4196"
           inkscape:connector-curvature="0" />
        <g
           id="g5173"
           style="stroke:#000000">
          <path
             sodipodi:nodetypes="cscssssssssssssc"
             inkscape:connector-curvature="0"
             id="path4785"
             d="m 510.88626,675.20228 c 0,0 12.18868,-40.12108 48.24687,-95.47802 36.05819,-55.35694 82.27361,-113.76104 82.27361,-113.76104 0,0 22.85378,-34.02674 39.61322,-59.92769 16.75944,-25.90096 15.95563,-14.93991 18.79089,-26.40882 4.83392,-19.5537 -22.34592,-7.61792 -37.58177,6.60221 -15.23586,14.22013 -44.15489,52.54183 -54.34122,67.03775 -13.2044,18.79089 -55.57738,84.1751 -78.21072,122.3947 -32.35573,54.63722 -49.77045,82.27361 -60.94341,113.25318 -11.17296,30.97959 -0.50786,41.64469 12.69654,44.69179 13.20441,3.0472 20.45457,-2.6701 44.18398,-9.6493 25.90095,-7.6179 68.25783,-18.20239 95.47802,-20.3145 13.90454,-1.0789 11.17296,-24.37737 7.11006,-27.42454 -10.44567,-7.83424 -73.1321,7.11007 -92.43084,12.69655 -19.29875,5.58648 -15.52346,7.1319 -23.86951,5.07861 -7.51154,-1.84798 -1.01572,-18.79088 -1.01572,-18.79088 z"
             style="fill:none;stroke:#000000;stroke-width:5;stroke-linecap:butt;stroke-linejoin:miter;stroke-miterlimit:4;stroke-dasharray:none;stroke-opacity:1" />
          <g
             transform="translate(-0.6396286,1.2792863)"
             id="g4891"
             style="stroke:#000000">
            <path
               style="fill:none;stroke:#000000;stroke-width:5;stroke-linecap:butt;stroke-linejoin:miter;stroke-miterlimit:4;stroke-dasharray:none;stroke-opacity:1"
               d="m 675.41277,709.58044 c 0,0 -11.42307,-11.59712 -1.56165,-49.19191 9.22668,-35.17496 7.02981,-26.66912 16.68659,-42.81479 9.65678,-16.14566 11.1185,-17.72848 28.10967,-38.92596 18.3833,-22.93424 29.75969,-31.73654 64.51911,-39.28697 29.76768,-6.46612 20.76114,58.04315 5.46576,84.32899 -14.58988,25.0734 -31.23296,62.46592 -54.65768,83.54817 -23.42472,21.08225 -34.54009,15.55341 -37.47955,14.83565 -21.14185,-5.16243 -21.08225,-12.49318 -21.08225,-12.49318 z"
               id="path4887"
               inkscape:connector-curvature="0"
               sodipodi:nodetypes="cszsssssc" />
            <path
               style="fill:none;stroke:#000000;stroke-width:5;stroke-linecap:butt;stroke-linejoin:miter;stroke-miterlimit:4;stroke-dasharray:none;stroke-opacity:1"
               d="m 695.28537,665.51907 c 0,0 1.47462,-10.0766 10.0766,-28.01786 8.60197,-17.94126 14.50047,-26.78901 25.80592,-38.34023 11.30545,-11.55122 37.19887,-33.42596 42.02679,-30.47557 4.42388,2.70348 5.18696,15.0588 2.45771,22.85667 -5.16119,14.74625 -35.39098,41.53526 -33.17905,43.00988 10.29194,6.8613 10.57123,4.91708 8.84775,8.11043 -1.7204,3.18764 -19.17011,30.39493 -27.28055,39.32331 -6.21185,6.83833 -16.22087,13.27162 -23.83976,7.12736 -9.50029,-7.66152 -4.91541,-23.59399 -4.91541,-23.59399 z"
               id="path4889"
               inkscape:connector-curvature="0"
               sodipodi:nodetypes="cssssssssc" />
          </g>
          <g
             transform="translate(-0.6396286,1.2792863)"
             id="g4941"
             style="stroke:#000000">
            <path
               style="fill:none;stroke:#000000;stroke-width:5;stroke-linecap:butt;stroke-linejoin:miter;stroke-miterlimit:4;stroke-dasharray:none;stroke-opacity:1"
               d="m 982.04949,665.8875 c 10.61626,-23.72607 13.45931,-30.76416 34.12901,-63.93176 20.6696,-33.16761 33.6483,-50.47244 40.8586,-52.3952 7.2104,-1.92276 14.4207,6.24897 12.9786,16.34345 -1.442,10.09449 -43.2621,51.91451 -49.511,74.98763 -6.249,23.07312 -17.7855,44.70416 -23.07314,69.70004 -5.28759,24.99587 -28.41554,17.98981 -27.88001,11.05586 -0.31383,-9.70654 1.88168,-32.03396 12.49794,-55.76002 z"
               id="path4937"
               inkscape:connector-curvature="0"
               sodipodi:nodetypes="zssssscz" />
            <path
               style="fill:none;stroke:#000000;stroke-width:5;stroke-linecap:butt;stroke-linejoin:miter;stroke-miterlimit:4;stroke-dasharray:none;stroke-opacity:1"
               d="m 1088.7626,461.59428 c 0,0 7.2104,-5.28758 15.8629,-11.53655 8.6524,-6.24897 17.3048,4.8069 16.8241,12.97862 -0.4807,8.17173 -0.4807,12.97863 -9.1332,23.55381 -8.3749,10.23594 -20.6696,12.49794 -26.4379,11.53656 -5.7683,-0.96138 -9.8438,-3.29949 -9.1331,-15.38208 0.4807,-8.17173 12.0172,-21.15036 12.0172,-21.15036 z"
               id="path4939"
               inkscape:connector-curvature="0"
               sodipodi:nodetypes="csssssc" />
          </g>
          <path
             sodipodi:nodetypes="csssccsssssssssssc"
             inkscape:connector-curvature="0"
             id="path4959"
             d="m 1065.5306,635.92194 c 0,0 18.7469,-40.85864 37.9745,-53.35658 19.2276,-12.49794 42.3007,-32.20622 52.3952,-33.1676 10.0945,-0.96138 28.8414,0.48069 28.3607,12.97863 -0.4807,12.49793 0.4807,24.51518 -10.5752,35.09035 -10.1465,11.49176 -19.6188,36.15858 -32.2062,27.88002 -12.2622,-10.51327 2.4035,-15.86276 5.7683,-21.63104 3.3648,-5.76828 18.7276,-33.87264 3.8455,-28.36071 -12.9786,4.8069 -26.9186,18.26622 -42.3007,36.53244 -17.433,20.70168 -31.9492,49.27104 -28.8414,67.29658 2.4034,13.94001 4.8069,21.15036 20.6697,20.18898 18.4586,-1.11871 28.8414,-8.17173 48.069,-28.8414 19.2276,-20.66966 19.7083,-30.76415 33.1676,-38.93588 13.4593,-8.17173 13.94,-5.76828 9.6138,11.05587 -4.3262,16.82415 -36.5325,57.68279 -49.9918,66.33521 -13.4593,8.65242 -27.3993,17.30483 -49.511,19.70828 -22.1118,2.40345 -32.6869,-12.01724 -38.9359,-26.91863 -6.249,-14.90139 12.4979,-65.85452 12.4979,-65.85452 z"
             style="fill:none;stroke:#000000;stroke-width:5;stroke-linecap:butt;stroke-linejoin:miter;stroke-miterlimit:4;stroke-dasharray:none;stroke-opacity:1" />
          <g
             id="g5117"
             style="stroke:#000000">
            <g
               id="g4905"
               transform="translate(-0.6396286,1.2792863)"
               style="stroke:#000000">
              <path
                 sodipodi:nodetypes="csssssssssssssssssssssssscc"
                 inkscape:connector-curvature="0"
                 id="path4901"
                 d="m 868.60667,680.78888 c 0,0 -9.78885,18.84169 -29.32209,26.43795 -17.30483,6.72966 -27.88001,5.76828 -34.12898,-5.76828 -6.24897,-11.53656 -8.17173,-38.93588 5.76828,-66.8159 13.94,-27.88001 30.28346,-51.91451 53.35658,-68.73866 23.07311,-16.82414 32.20622,-28.84139 56.24072,-31.72553 24.03449,-2.88414 25.33294,6.01159 27.88001,18.74691 2.88414,14.42069 -14.4207,29.32208 -9.13311,38.93588 5.28759,9.6138 3.36483,11.53656 0.96138,13.94001 -6.53809,6.53809 -26.91863,44.22347 -37.49381,62.48968 -9.59149,16.56711 -19.2276,27.39933 -11.05587,25.95726 8.17173,-1.44207 28.8414,-21.15036 40.85864,-38.45519 12.01725,-17.30484 23.55381,-39.41658 33.6483,-44.22347 10.09449,-4.8069 12.97863,-6.72966 13.45932,-2.40345 0.48069,4.32621 -5.76828,24.99587 -16.34346,40.85864 -10.57518,15.86277 -41.82002,49.03037 -56.72141,58.64417 -14.90139,9.6138 -26.91864,17.30483 -32.20622,22.59242 -5.28759,5.28759 -8.17173,4.8069 -12.01725,19.2276 -3.84552,14.4207 -44.22347,78.35246 -55.27934,90.3697 -11.38625,12.37635 -27.39933,34.12899 -39.89726,37.01313 -12.49794,2.88413 -22.58171,4.0669 -32.20623,-2.88414 -8.65242,-6.24897 -11.53656,-17.78553 -12.97863,-34.12899 -1.44207,-16.34345 14.90139,-43.74278 24.0345,-49.99175 9.13311,-6.24897 40.12288,-30.89952 54.31796,-39.41657 16.82415,-10.09449 28.45721,-17.5694 45.18485,-27.39933 10.94126,-6.42959 22.59243,-37.01312 22.59243,-37.01312 z"
                 style="fill:none;stroke:#000000;stroke-width:5;stroke-linecap:butt;stroke-linejoin:miter;stroke-miterlimit:4;stroke-dasharray:none;stroke-opacity:1" />
              <path
                 sodipodi:nodetypes="csssssssc"
                 inkscape:connector-curvature="0"
                 id="path4903"
                 d="m 830.15147,655.79301 c 0,0 21.63105,-42.7814 36.53244,-58.64417 14.90138,-15.86277 38.45519,-31.72554 43.74278,-30.28347 5.28759,1.44207 7.69104,1.44207 5.76828,11.05587 -1.92276,9.6138 -15.38208,27.39933 -24.99588,34.12898 -9.6138,6.72966 -2.40345,12.01725 -4.8069,18.26622 -2.40345,6.24897 -30.28346,49.51106 -36.05174,49.99175 -5.76828,0.48069 -12.01725,2.88414 -18.74691,-1.92276 -6.72966,-4.8069 -1.44207,-22.59242 -1.44207,-22.59242 z"
                 style="fill:none;stroke:#000000;stroke-width:5;stroke-linecap:butt;stroke-linejoin:miter;stroke-miterlimit:4;stroke-dasharray:none;stroke-opacity:1" />
            </g>
            <path
               style="fill:none;stroke:#000000;stroke-width:5;stroke-linecap:butt;stroke-linejoin:miter;stroke-miterlimit:4;stroke-dasharray:none;stroke-opacity:1"
               d="m 836.41708,751.3864 c 0,0 -42.32472,20.15463 -62.47935,43.66836 -20.15462,23.51373 -33.59104,43.66836 -24.18555,54.4175 9.40549,10.74913 38.96561,-10.07732 53.74568,-38.2938 14.78006,-28.21648 32.91922,-59.79206 32.91922,-59.79206 z"
               id="path5008"
               inkscape:connector-curvature="0" />
          </g>
        </g>
        <g
           id="g5209">
          <g
             id="text4791"
             style="font-style:oblique;font-variant:normal;font-weight:normal;font-stretch:normal;font-size:183.32884216px;line-height:125%;font-family:'Arial Unicode MS';-inkscape-font-specification:'Arial Unicode MS Oblique';text-align:start;letter-spacing:0px;word-spacing:0px;writing-mode:lr-tb;text-anchor:start;fill:#000000;fill-opacity:1;stroke:none"
             transform="matrix(1.3813738,0,0.09647057,0.72391704,8.27589,-1.3915219)">
            <path
               inkscape:connector-curvature="0"
               id="path4863"
               d="m -584.6411,1109.2842 -43.41528,0 -39.30313,115.6548 -17.45563,0 39.30314,-115.6548 -43.05722,0 5.29264,-15.5757 103.92812,0 z"
               style="fill:#000000" />
          </g>
          <g
             id="text4795"
             style="font-style:oblique;font-variant:normal;font-weight:normal;font-stretch:normal;font-size:183.69812012px;line-height:125%;font-family:'Arial Unicode MS';-inkscape-font-specification:'Arial Unicode MS Oblique';text-align:start;letter-spacing:0px;word-spacing:0px;writing-mode:lr-tb;text-anchor:start;fill:#000000;fill-opacity:1;stroke:none"
             transform="matrix(1.3841562,0,0.12841106,0.72246181,8.27589,0.6790193)">
            <path
               inkscape:connector-curvature="0"
               id="path4860"
               d="m -541.56273,1224.5404 -98.2175,0 44.6856,-131.4948 95.16783,0 -5.3033,15.6071 -77.76673,0 -13.65627,40.184 72.74374,0 -5.3033,15.6072 -72.74374,0 -15.11944,44.4893 80.81641,0 z"
               style="fill:#000000" />
          </g>
          <g
             id="text4799"
             style="font-style:oblique;font-variant:normal;font-weight:normal;font-stretch:normal;font-size:213.52568054px;line-height:125%;font-family:'Arial Unicode MS';-inkscape-font-specification:'Arial Unicode MS Oblique';text-align:start;letter-spacing:0px;word-spacing:0px;writing-mode:lr-tb;text-anchor:start;fill:#000000;fill-opacity:1;stroke:none"
             transform="matrix(1.6637795,0,0.31154897,0.60104119,8.27589,1.1294666)">
            <path
               inkscape:connector-curvature="0"
               id="path4857"
               d="m -460.23286,1420.0814 c -10.28285,17.1683 -22.40204,29.975 -36.35762,38.4201 -13.95582,8.4451 -28.6837,12.6676 -44.18368,12.6676 -25.0226,0 -40.58782,-7.8369 -46.69571,-23.5107 -6.10796,-15.6738 -5.41724,-34.5276 2.07218,-56.5614 8.29301,-24.3969 21.50803,-43.4939 39.64509,-57.2912 18.1369,-13.797 37.77045,-20.6956 58.90071,-20.6957 14.87436,10e-5 26.30718,3.7883 34.29848,11.3644 7.99096,7.5764 11.62596,18.6628 10.905,33.2591 l -21.406,4.6917 c 0.27787,-10.6344 -2.07885,-18.6277 -7.07017,-23.9799 -4.99162,-5.3519 -12.59612,-8.0279 -22.81352,-8.0281 -16.68181,2e-4 -31.19248,5.4739 -43.53205,16.4211 -12.33975,10.9475 -21.63957,25.6308 -27.89948,44.0501 -7.22879,21.2692 -8.06722,37.082 -2.51529,47.4386 5.55181,10.3565 15.62598,15.5348 30.22254,15.5348 11.95511,0 22.76671,-3.2321 32.43481,-9.6963 9.66787,-6.4641 18.20529,-16.1951 25.61227,-29.1929 z"
               style="fill:#000000" />
          </g>
          <g
             id="text4803"
             style="font-style:oblique;font-variant:normal;font-weight:normal;font-stretch:normal;font-size:191.26470947px;line-height:125%;font-family:'Arial Unicode MS';-inkscape-font-specification:'Arial Unicode MS Oblique';text-align:start;letter-spacing:0px;word-spacing:0px;writing-mode:lr-tb;text-anchor:start;fill:#000000;fill-opacity:1;stroke:none"
             transform="matrix(1.4411701,0,0.13370036,0.6938806,8.27589,2.7494842)">
            <path
               inkscape:connector-curvature="0"
               id="path4854"
               d="m -224.50285,1271.9958 -18.21124,0 21.90018,-64.4397 -71.16392,0 -21.90018,64.4397 -18.11785,0 46.52621,-136.9111 18.11785,0 -19.10429,56.2214 71.16392,0 19.10429,-56.2214 18.21124,0 z"
               style="fill:#000000" />
          </g>
          <g
             id="text4807"
             style="font-style:oblique;font-variant:normal;font-weight:normal;font-stretch:normal;font-size:201.68234253px;line-height:125%;font-family:'Arial Unicode MS';-inkscape-font-specification:'Arial Unicode MS Oblique';text-align:start;letter-spacing:0px;word-spacing:0px;writing-mode:lr-tb;text-anchor:start;fill:#000000;fill-opacity:1;stroke:none"
             transform="matrix(1.5196665,0,0.19835063,0.65803911,8.27589,2.7494434)">
            <path
               inkscape:connector-curvature="0"
               id="path4851"
               d="m -125.67664,1341.2778 -19.59706,0 -36.91067,-113.3478 -0.39392,0 -38.52324,113.3478 -18.1199,0 49.06036,-144.3683 19.49859,0 36.91683,113.3479 0.39391,0 38.517091,-113.3479 18.218375,0 z"
               style="fill:#000000" />
          </g>
          <g
             id="text4811"
             style="font-style:oblique;font-variant:normal;font-weight:normal;font-stretch:normal;font-size:213.52568054px;line-height:125%;font-family:'Arial Unicode MS';-inkscape-font-specification:'Arial Unicode MS Oblique';text-align:start;letter-spacing:0px;word-spacing:0px;writing-mode:lr-tb;text-anchor:start;fill:#000000;fill-opacity:1;stroke:none"
             transform="matrix(1.6637795,0,0.31154897,0.60104119,8.27589,-0.9411203)">
            <path
               inkscape:connector-curvature="0"
               id="path4848"
               d="m -83.870423,1316.555 c 21.408017,2e-4 36.455193,7.2637 45.141576,21.7905 8.68602,14.5271 8.991199,33.6763 0.915538,57.4476 -8.054304,23.7019 -21.379011,42.7642 -39.97416,57.1869 -18.595434,14.4227 -38.527651,21.6341 -59.796701,21.6341 -22.0338,0 -37.21891,-7.472 -45.55536,-22.416 -8.33653,-14.944 -8.84263,-33.1896 -1.5183,-54.7369 8.52761,-25.0919 22.03585,-44.8493 40.52479,-59.2721 18.48878,-14.4226 38.5763,-21.6339 60.262617,-21.6341 z m -48.038067,140.7518 c 15.49997,0 29.9053,-5.4215 43.216015,-16.2646 13.310457,-10.8431 23.28471,-25.9261 29.922789,-45.2491 6.755049,-19.8789 7.034163,-35.1705 0.837342,-45.8747 -6.197144,-10.7039 -16.732883,-16.056 -31.607248,-16.0561 -15.291668,10e-5 -29.655718,5.2479 -43.092208,15.7433 -13.43665,10.4957 -23.84098,26.5866 -31.21301,48.2727 -6.0211,17.7243 -6.06128,32.0602 -0.12055,43.0075 5.94062,10.9474 16.62623,16.421 32.05687,16.421 z"
               style="fill:#000000" />
          </g>
          <g
             id="text4819"
             style="font-style:oblique;font-variant:normal;font-weight:normal;font-stretch:normal;font-size:193.13589478px;line-height:125%;font-family:'Arial Unicode MS';-inkscape-font-specification:'Arial Unicode MS Oblique';text-align:start;letter-spacing:0px;word-spacing:0px;writing-mode:lr-tb;text-anchor:start;fill:#000000;fill-opacity:1;stroke:none"
             transform="matrix(1.4552694,0,0.18994536,0.68715798,8.27589,2.7494286)">
            <path
               inkscape:connector-curvature="0"
               id="path4845"
               d="m 178.04305,1284.4401 -86.47735,0 46.98139,-138.2506 18.2951,0 -41.40563,121.8416 68.18225,0 z"
               style="fill:#000000" />
          </g>
          <g
             id="text4823"
             style="font-style:oblique;font-variant:normal;font-weight:normal;font-stretch:normal;font-size:193.13589478px;line-height:125%;font-family:'Arial Unicode MS';-inkscape-font-specification:'Arial Unicode MS Oblique';text-align:start;letter-spacing:0px;word-spacing:0px;writing-mode:lr-tb;text-anchor:start;fill:#000000;fill-opacity:1;stroke:none"
             transform="matrix(1.4552694,0,0.18994536,0.68715799,8.27589,0.67894)">
            <path
               inkscape:connector-curvature="0"
               id="path4836"
               d="m 675.30814,1149.2027 -82.15112,79.6874 -19.90418,58.5631 -18.3894,0 19.90417,-58.5631 -26.2049,-79.6874 22.2559,0 14.57006,46.4921 c 1.47736,4.7154 3.01963,10.908 4.62682,18.578 4.38901,-5.1552 25.71558,-26.8452 63.97981,-65.0701 z"
               style="fill:#000000" />
          </g>
          <path
             inkscape:connector-curvature="0"
             id="path5135"
             d="m 612.28916,885.28896 c -21.91421,-0.24524 -43.09245,-2.62326 -58.02136,-6.51499 -20.09364,-5.23809 -34.8945,-14.26323 -39.14206,-23.86772 -1.2749,-2.88277 -1.6282,-4.85435 -1.47867,-8.2517 0.15581,-3.54015 0.85066,-5.99909 2.80289,-9.91883 7.36962,-14.79696 24.75173,-26.32812 52.3128,-34.70392 25.73541,-7.82098 54.55463,-11.55941 89.0442,-11.55083 30.62673,0.008 53.76842,2.97477 72.54399,9.30133 1.64291,0.55359 3.09577,1.10385 3.22857,1.22281 0.13281,0.11896 -0.42738,1.20748 -1.24486,2.41893 -2.02735,3.00441 -5.837,9.90891 -7.37273,13.36215 -0.69519,1.56319 -1.30622,2.89845 -1.35786,2.96725 -0.0516,0.0688 -0.29995,-0.18725 -0.55181,-0.56898 -0.95482,-1.44715 -4.68239,-4.73554 -7.02172,-6.19442 -7.40873,-4.62032 -20.47624,-8.68956 -33.47328,-10.4236 -17.60576,-2.34893 -40.86453,-2.34538 -60.16884,0.009 -26.08782,3.18196 -47.44875,10.37089 -59.33069,19.96749 -3.10381,2.50684 -7.32975,7.01819 -9.18244,9.80261 -1.97506,2.96834 -4.25792,7.71536 -4.89742,10.18377 -0.67742,2.61484 -0.62293,6.47458 0.12479,8.83959 1.80899,5.72174 7.19302,10.57842 16.21754,14.62908 13.20913,5.92893 32.43442,8.9718 56.60192,8.95863 23.70232,-0.0129 45.45658,-2.97578 62.91103,-8.56829 14.13686,-4.52953 24.12994,-9.93751 31.20833,-16.8891 l 3.18643,-3.12935 0.31101,2.27589 c 1.09522,8.01441 2.27991,12.88885 4.39958,18.10219 0.14984,0.36851 -0.26048,0.65101 -1.99332,1.3724 -9.57758,3.98715 -24.20377,8.28445 -37.25427,10.9456 -21.69405,4.42368 -46.05711,6.51765 -72.40175,6.22282 z"
             style="fill:#000000;fill-opacity:1;stroke:none" />
          <path
             inkscape:connector-curvature="0"
             id="path5137"
             d="m 751.55687,847.61226 c -4.10557,-4.87918 -2.74062,-12.70436 4.25062,-24.36852 1.00427,-1.67552 2.08303,-3.42551 2.39724,-3.88886 l 0.57129,-0.84244 0.71095,1.55366 c 3.4934,7.63418 1.59756,17.04303 -5.27071,26.15792 -0.94479,1.25383 -1.76089,2.27969 -1.81355,2.27969 -0.0527,0 -0.43329,-0.40115 -0.84584,-0.89145 z"
             style="fill:#000000;fill-opacity:1;stroke:none" />
          <path
             inkscape:connector-curvature="0"
             id="path5139"
             d="m 766.0345,845.3466 c 1.21569,-10.74528 10.12778,-21.41912 25.5245,-30.57021 3.92428,-2.33241 9.31135,-5.09083 9.52497,-4.87721 0.33949,0.33949 -3.89326,7.32731 -7.27188,12.00507 -6.98565,9.67177 -16.0239,18.31101 -24.45345,23.37392 -1.65116,0.99171 -3.11872,1.80311 -3.26125,1.80311 -0.149,0 -0.17573,-0.73732 -0.0629,-1.73468 z"
             style="fill:#000000;fill-opacity:1;stroke:none" />
          <path
             inkscape:connector-curvature="0"
             id="path5141"
             d="m 975.51021,818.25111 c -3.84135,-7.75439 -14.70971,-12.97688 -32.31158,-15.5264 -17.86773,-2.58803 -45.87299,-2.58755 -68.2767,0.001 -17.90173,2.06852 -31.53889,5.54425 -45.32362,11.55174 -0.20614,0.0898 0.55405,-1.29388 1.68932,-3.07493 1.13527,-1.78105 3.51364,-5.54261 5.28528,-8.35902 1.77164,-2.81642 3.4438,-5.27397 3.71591,-5.46123 0.5656,-0.38921 7.73229,-1.77294 14.43459,-2.787 20.87486,-3.15835 39.99748,-4.31923 66.42754,-4.03264 20.57737,0.22314 32.66627,1.10355 45.94453,3.34606 19.2294,3.24757 32.51749,9.24701 37.94112,17.13003 1.0134,1.47289 2.4605,4.44754 2.7513,5.65564 0.2325,0.96565 1.4333,0.77796 -15.08866,2.35853 -7.35397,0.70352 -13.96074,1.35431 -14.68172,1.4462 l -1.31087,0.16706 -1.19644,-2.41521 0,0 z"
             style="fill:#000000;fill-opacity:1;stroke:none" />
          <path
             inkscape:connector-curvature="0"
             id="path5143"
             d="m 872.07707,885.28856 c -30.17745,-0.31332 -57.04873,-3.85172 -74.81989,-9.85226 -4.82157,-1.62803 -11.9011,-4.54211 -12.63058,-5.19901 -0.0623,-0.0561 1.602,-1.86543 3.69833,-4.02082 2.09632,-2.1554 5.97768,-6.3979 8.62523,-9.42779 l 4.81372,-5.50889 0.45235,1.10121 c 1.91622,4.66491 5.92619,8.35241 12.64786,11.63079 13.06144,6.37049 33.70998,9.77659 62.33373,10.28232 21.83684,0.38581 44.24381,-1.6337 67.13876,-6.05115 4.24523,-0.81909 14.6997,-3.19288 14.88707,-3.38025 0.11904,-0.11904 7.16061,-16.69059 7.16061,-16.85169 0,-0.042 -16.84817,-0.0763 -37.44038,-0.0763 -29.83864,0 -37.41145,-0.0722 -37.29788,-0.35561 0.0784,-0.19558 1.13449,-2.69195 2.34691,-5.54748 l 2.20441,-5.19188 53.75103,0 c 31.37612,0 53.71155,0.10564 53.65615,0.25376 -0.052,0.13957 -3.2879,7.81329 -7.19049,17.05272 l -7.09571,16.79896 -7.55533,1.86225 c -35.61824,8.77918 -71.62415,12.87628 -109.6859,12.4811 z"
             style="fill:#000000;fill-opacity:1;stroke:none" />
        </g>
      </g>
    </g>
  </g>
</svg>
